<svg id="Capa_1" enable-background="new 0 0 512 512" height="512" viewBox="0 0 512 512" width="512" xmlns="http://www.w3.org/2000/svg"><g><path d="m255.995 146.281c60.594 0 109.714 49.121 109.714 109.714v125.734h-109.692s-.022-235.448-.022-235.448z" fill="#e5c3ba"/><path d="m474.979 438.857c20.198 0 37.021 16.374 37.021 36.571v36.572h-73.593l-16.357-16.01v-57.132h52.929z" fill="#c6725a"/><path d="m119.92 308.58v73.149h-46.337v-16.009c-26.443 0-42.823-16.38-42.823-36.57v-6.58h-30.76v-30h103.83z" fill="#e8967d"/><path d="m292.56 182.84v198.89h-188.65v-89.16h115.53v-109.73c0-20.19 16.37-36.56 36.56-36.56 10.09 0 19.23 4.09 25.85 10.71 6.62 6.61 10.71 15.75 10.71 25.85z" fill="#fff0ee"/><path d="m281.85 156.99c6.62 6.61 10.71 15.75 10.71 25.85v198.89h-36.55l-.01-235.45c10.09 0 19.23 4.09 25.85 10.71z" fill="#e5cfcc"/><path d="m438.87 453.86v58.14h-365.26c-40.4 0-73.14-32.75-73.14-73.14 0-20.2 8.19-38.49 21.42-51.72 13.23-13.24 31.52-21.43 51.72-21.43h292.12c35.26 0 64.68 24.95 71.6 58.15 1.01 4.84-14.47 15-14.47 15z" fill="#e5c3ba"/><path d="m438.87 453.86v58.14h-182.85l-.01-146.29h109.72c35.26 0 64.68 24.95 71.6 58.15 1.01 4.84-14.47 15-14.47 15z" fill="#d8b3a7"/><path d="m437.328 423.857h-89.453v30h90.999v-15c0-5.142-.536-10.157-1.546-15z" fill="#e5c3ba"/><path d="m329.16 73.15c0 40.39-32.75 75.13-73.14 75.13-.01 0-.01 0-.02 0-40.39-.01-73.13-34.75-73.13-75.13l16.01-10.82h114.27z" fill="#e8967d"/><path d="m182.87 0h146.29v73.15h-146.29z" fill="#fff0ee"/><path d="m256.02 148.28c-.01 0-.01 0-.02 0v-85.95h57.15l16.01 10.82c0 40.39-32.75 75.13-73.14 75.13z" fill="#c6725a"/><path d="m329.16 0v73.15h-73.16l-.01-73.15z" fill="#e5cfcc"/></g></svg>