<svg height="512" viewBox="0 0 48 58" width="512" xmlns="http://www.w3.org/2000/svg">
    <g id="Page-1" fill="none" fill-rule="evenodd">
        <g id="072---Tulip" fill-rule="nonzero">
            <path id="Shape"
                d="m38.06 11.63c-2.541342 1.7385729-4.7724161 3.8918975-6.6 6.37-6.46 8.59-7.36 19.62-7.46 24-.09-4.42-1-15.45-7.45-24-1.8154016-2.4715025-4.0288826-4.624155-6.55-6.37 3.2553917-4.4260654 7.3288608-8.18723518 12-11.08 1.2376043-.71453118 2.7623957-.71453118 4 0 4.6895534 2.89078505 8.7830637 6.65165517 12.06 11.08z"
                fill="#3b97d3" />
            <path id="Shape"
                d="m24 53c-.5522847 0-1-.4477153-1-1v-40c0-.5522847.4477153-1 1-1s1 .4477153 1 1v40c0 .5522847-.4477153 1-1 1z"
                fill="#2980ba" />
            <path id="Shape"
                d="m24 9c-.5522847 0-1-.44771525-1-1v-2c0-.55228475.4477153-1 1-1s1 .44771525 1 1v2c0 .55228475-.4477153 1-1 1z"
                fill="#2980ba" />
            <path id="Shape"
                d="m24 42.06v1.47.1.37 14c-8.27 0-24-3.9-24-25v-25c3.6014201.27808378 7.05880493 1.53311447 10 3.63 2.5246845 1.7449785 4.7415929 3.8976777 6.56 6.37 6.44 8.59 7.36 19.62 7.44 24z"
                fill="#2fa8cc" />
            <path id="Shape"
                d="m48 8v25c0 21.1-15.71 25-24 25v-14s0-.13 0-.37v-.1c0-.33 0-.83 0-1.47.09-4.42 1-15.45 7.45-24 1.8275839-2.4781025 4.058658-4.6314271 6.6-6.37 2.9195995-2.11155946 6.3595805-3.3872911 9.95-3.69z"
                fill="#67b9cc" />
        </g>
    </g>
</svg>